HIERARCHY
ROOT hip
{
	OFFSET 0.000000 0.000000 0.000000 
	CHANNELS 6 Xposition Yposition Zposition Xrotation Zrotation Yrotation
	JOINT abdomen
	{
		OFFSET 0.000000 0.000000 0.000000 
		CHANNELS 3 Xrotation Zrotation Yrotation
		JOINT chest
		{
			OFFSET 0.000000 4.862840 -1.823974 
			CHANNELS 3 Xrotation Zrotation Yrotation
			JOINT neck
			{
				OFFSET 0.000000 2.209834 -0.380644 
				CHANNELS 3 Xrotation Zrotation Yrotation
				JOINT head
				{
					OFFSET 0.000000 3.388650 0.513082 
					CHANNELS 3 Xrotation Zrotation Yrotation
					End Site
					{
						OFFSET 0.000000 10.033302 0.000000 
					}
				}
			}
			JOINT lCollar
			{
				OFFSET 0.580691 8.059053 0.760605 
				CHANNELS 3 Yrotation Zrotation Xrotation
				JOINT lShldr
				{
					OFFSET 6.222462 0.009832 -0.321848 
					CHANNELS 3 Zrotation Yrotation Xrotation
					JOINT lForeArm
					{
						OFFSET 10.220657 0.024782 0.183730 
						CHANNELS 3 Yrotation Zrotation Xrotation
						JOINT lHand
						{
							OFFSET 10.719483 0.309727 0.636712 
							CHANNELS 3 Zrotation Yrotation Xrotation
							End Site
							{
								OFFSET 10.033305 0.000000 0.000000 
							}
						}
					}
				}
			}
			JOINT rCollar
			{
				OFFSET -0.580691 8.059053 0.760605 
				CHANNELS 3 Yrotation Zrotation Xrotation
				JOINT rShldr
				{
					OFFSET -6.222462 0.009832 -0.321848 
					CHANNELS 3 Zrotation Yrotation Xrotation
					JOINT rForeArm
					{
						OFFSET -10.220657 0.024782 0.183730 
						CHANNELS 3 Yrotation Zrotation Xrotation
						JOINT rHand
						{
							OFFSET -10.719483 0.309727 0.636712 
							CHANNELS 3 Zrotation Yrotation Xrotation
							End Site
							{
								OFFSET -10.033305 0.000000 0.000000 
							}
						}
					}
				}
			}
		}
	}
	JOINT lThigh
	{
		OFFSET 4.361177 -6.202389 -1.775974 
		CHANNELS 3 Xrotation Zrotation Yrotation
		JOINT lShin
		{
			OFFSET -1.317052 -18.333157 1.143369 
			CHANNELS 3 Xrotation Zrotation Yrotation
			JOINT lFoot
			{
				OFFSET -0.636132 -16.703447 -0.302338 
				CHANNELS 3 Xrotation Yrotation Zrotation
				End Site
				{
					OFFSET 0.000000 -2.207327 5.819317 
				}
			}
		}
	}
	JOINT rThigh
	{
		OFFSET -4.361177 -6.202389 -1.775974 
		CHANNELS 3 Xrotation Zrotation Yrotation
		JOINT rShin
		{
			OFFSET 1.317052 -18.333157 1.143369 
			CHANNELS 3 Xrotation Zrotation Yrotation
			JOINT rFoot
			{
				OFFSET 0.636132 -16.703447 -0.302338 
				CHANNELS 3 Xrotation Yrotation Zrotation
				End Site
				{
					OFFSET 0.000000 -2.207327 5.819317 
				}
			}
		}
	}
}
MOTION
Frames: 8
Frame Time: 0.016667
-0.245598 43.436016 -2.901032 -3.530024 -0.611977 5.898726 30.022316 -2.333983 -0.068700 -22.916723 8.368415 0.761002 -27.993635 2.828538 9.885473 14.480332 -7.994127 10.365208 9.392858 -9.855110 -0.009493 -73.163635 2.024212 23.355896 -25.855534 -1.245562 -15.817166 -12.567276 18.089769 -3.966483 12.783195 -0.050989 -0.009524 75.209206 -15.727279 -13.121247 28.300930 -1.986678 21.691593 20.145643 -6.491472 -2.385367 -12.354089 0.811902 -12.421742 19.855883 -1.539351 -1.956164 -2.615474 4.811032 -11.852898 -17.777012 -4.587076 -10.502939 51.664944 0.000077 3.517665 -9.208833 -2.391005 11.741666 
-0.334008 43.380047 -3.175991 -3.658685 -0.446918 5.800909 29.562647 -2.460937 -0.049202 -22.924911 8.456159 0.830063 -26.473881 2.211754 10.037200 13.859464 -7.592070 10.295287 9.305086 -9.171501 -0.009514 -73.872162 2.723374 23.237329 -25.433622 -1.174842 -14.849291 -12.297956 17.331060 -3.724163 12.704985 -0.558788 -0.009526 75.707397 -15.897883 -13.124780 27.586761 -2.004060 21.938034 20.523123 -6.576496 -2.465794 -12.541011 0.763018 -12.308090 19.777693 -1.542584 -1.942821 -2.397121 4.703481 -11.896287 -17.232906 -4.891022 -10.172302 54.637547 -0.185505 3.641801 -9.639403 -2.619606 11.683876 
-0.422418 43.324078 -3.450941 -3.787861 -0.281806 5.693387 29.093563 -2.587890 -0.039464 -22.921810 8.534099 0.908778 -24.948177 1.595637 10.170190 13.237619 -7.189838 10.227189 9.207545 -8.497656 -0.009534 -74.592072 3.421033 23.113899 -25.010406 -1.078969 -13.885952 -12.030196 16.572741 -3.475967 12.617011 -1.066586 -0.009528 76.215981 -16.065117 -13.125431 26.885004 -2.031570 22.181484 20.900776 -6.660750 -2.547437 -12.714878 0.704476 -12.155617 19.689138 -1.539150 -1.957123 -2.198328 4.574395 -11.895141 -16.688416 -5.195183 -9.844195 57.620602 -0.370970 3.728647 -10.059547 -2.834785 11.630546 
-0.527295 43.269699 -3.746126 -4.168215 -0.272042 5.791043 28.872705 -2.490231 0.097564 -23.318008 8.348459 0.958495 -21.706348 1.173162 10.041334 11.290396 -7.106803 10.067340 8.806002 -7.649475 -0.019129 -75.205376 4.503382 22.813339 -24.621859 -1.015592 -13.024162 -11.862412 15.784634 -3.277876 12.792751 -1.310756 -0.009521 76.799759 -16.517149 -13.454410 26.145863 -2.065751 22.668072 21.321873 -6.614622 -2.585490 -12.763248 0.841483 -12.286804 19.719452 -1.540625 -1.929709 -1.875495 4.431633 -11.920145 -15.103874 -5.310905 -9.803319 58.751743 -0.430817 3.756267 -10.149977 -2.535093 11.700360 
-0.632163 43.215321 -4.041299 -4.548492 -0.262285 5.878935 28.652763 -2.382794 0.224415 -23.722893 8.162798 1.016466 -18.451435 0.760013 9.893514 9.353665 -7.023836 9.899028 8.407051 -6.798303 -0.009593 -75.823105 5.574357 22.510939 -24.231895 -0.938793 -12.167676 -11.684734 14.988609 -3.069975 12.968492 -1.554926 -0.009513 77.393631 -16.971283 -13.794702 25.413116 -2.102284 23.144421 21.742907 -6.568294 -2.623007 -12.857910 0.976842 -12.405396 19.778040 -1.542601 -1.933097 -1.550046 4.284682 -11.967499 -13.499953 -5.426291 -9.775150 59.892189 -0.499444 3.788345 -10.252393 -2.232472 11.772431 
-0.768315 43.149113 -4.368173 -4.961608 -0.281613 6.074290 28.511181 -2.314409 0.351670 -24.452530 7.938100 1.066159 -15.006245 0.596956 9.619733 7.516107 -7.028574 9.672572 7.683637 -5.637377 -0.019262 -76.620758 7.049660 21.632666 -23.962564 -0.838111 -10.864304 -12.246655 14.901354 -3.204316 13.320027 -1.721000 -0.009499 78.095634 -17.677458 -14.077183 24.914154 -2.127903 23.543953 22.049437 -6.599608 -2.675808 -12.995929 1.162204 -12.611948 19.866497 -1.542524 -1.927986 -1.012666 4.088367 -12.031701 -11.423906 -5.379771 -9.747814 59.608147 -0.498031 3.805724 -10.145252 -1.837519 11.808694 
-0.904463 43.082905 -4.695036 -5.383557 -0.291217 6.269599 28.360140 -2.246016 0.478531 -25.181030 7.723142 1.124179 -11.566242 0.452917 9.326495 5.685513 -7.042637 9.455800 6.962131 -4.483606 -0.009664 -77.434334 8.504250 20.734455 -23.690512 -0.715675 -9.568040 -12.808143 14.812956 -3.334768 13.671560 -1.896839 -0.009484 78.798363 -18.384903 -14.360825 24.407740 -2.163604 23.945711 22.346188 -6.631007 -2.729010 -13.152429 1.337935 -12.826930 19.964020 -1.542628 -1.942874 -0.449138 3.902234 -12.079538 -9.333156 -5.339650 -9.708114 59.334583 -0.498068 3.803479 -10.065455 -1.447459 11.907372 
-1.060505 43.009769 -5.048842 -5.778582 -0.320204 6.484437 28.127188 -2.177566 0.713118 -26.101130 7.175991 1.270635 -8.208406 0.781603 8.848558 4.209995 -7.164415 9.153019 5.760734 -2.902351 -0.019408 -78.460999 10.305955 19.264666 -23.454294 -0.595357 -8.069338 -13.683512 15.200168 -3.661723 14.052435 -1.818778 -0.009469 79.780891 -19.158401 -15.505945 24.225054 -2.254584 25.001167 22.699703 -6.614149 -2.769554 -13.345740 1.543345 -13.061440 19.993380 -1.532871 -1.962358 0.265572 3.713786 -12.103876 -7.148145 -5.107178 -9.537100 58.264000 -0.410008 3.745983 -10.213054 -1.018993 11.966354 
